<?xml version="1.0" encoding="utf-8"?>
<!-- Generator: Adobe Illustrator 21.0.0, SVG Export Plug-In . SVG Version: 6.00 Build 0)  -->
<svg version="1.1" id="Layer_1" xmlns="http://www.w3.org/2000/svg" xmlns:xlink="http://www.w3.org/1999/xlink" x="0px" y="0px"
	 viewBox="0 0 396.6 297.5" style="enable-background:new 0 0 396.6 297.5;" xml:space="preserve">
<style type="text/css">
	.st0{fill:#1E85B8;}
</style>
<path class="st0" d="M-275.4,379.6c0-17.5,0.3-35-0.1-52.5c-0.8-33.9,1.6-67.4,7.3-100.9c9.7-55.9,27.3-108.7,56.1-157.5
	c48.3-82,116.4-142.2,202.2-182.7c38.1-18,78-30.7,119.7-37c21.7-3.3,43.5-6,65.6-5.8c93.9,0.7,181.4,23.9,260.3,75.7
	c77.4,50.8,135.5,118,170.4,204.3c16.4,40.6,26.5,83,31.8,126.4c5.9,47.9,6.2,96,5.3,144.2c-0.5,26-0.4,52-0.8,78
	c-0.2,11.3-0.6,22.6-3.6,33.7c-11.7,43-60.9,62.7-97,38.8c-16.1-10.6-24.1-26.2-27-44.8c-2-12.5-3-25.1-3-37.8c0-52.3,0-104.7,0-157
	c0-20.5-6.4-38.7-20.4-53.8c-24.5-26.3-62.1-27.3-89.6-3c-15.4,13.7-22.4,31.1-23.9,51.1c-0.6,7.5-0.8,15-0.8,22.5
	c-0.1,57.7,0.1,115.3-0.3,173c-0.3,32.7-25.2,57.7-58.5,60c-32,2.2-60.1-19.7-65.6-51.3c-1.5-8.7-2-17.5-2-26.4c0-58,0.1-116,0-174
	c-0.1-19.6-6.6-36.8-20.3-51.2c-27.5-28.9-68.9-28-95.6,1.7c-13.1,14.5-18.8,31.4-18.8,50.7c0,57.3-0.1,114.7,0,172
	c0,14.8-1.8,29.3-7.9,42.9c-10.6,23.6-32.8,37.4-58.6,36.5c-24.5-0.8-45.2-16.2-54.6-40.8c-3.7-9.7-5.3-19.9-5.3-30.3
	c0.1-55.5,0.1-111-0.1-166.5c0-12.3-0.5-24.7-4.2-36.6c-8.4-27.3-26.6-44.7-54.7-49.3c-28.6-4.7-49.8,8.8-65.7,31.8
	c-7.6,11-10.1,23.4-10.1,36.5c0,52.7,0.1,105.3,0.1,158c0,15.5,0.3,31-3.2,46.3c-5.8,25.4-30.2,53.1-67.1,50.4
	c-25.4-1.9-49.8-22.9-56.9-49.8c-2.5-9.6-3.3-19.4-3.3-29.2C-275.3,443.6-275.3,411.6-275.4,379.6
	C-275.3,379.6-275.4,379.6-275.4,379.6z"/>
</svg>
