<svg width="120" height="14" viewBox="0 0 120 14" fill="none" xmlns="http://www.w3.org/2000/svg">
<path d="M13.4495 0V13.2578H10.0968V5.02917C10.0968 4.10387 9.34655 3.35285 8.42028 3.35285C7.4945 3.35285 6.74396 4.10339 6.74396 5.02917V13.2578H0V0H13.4495Z" fill="#43B9FB"/>
<path d="M15.2217 0V13.2658H28.6711V0H15.2217ZM22.0632 10.9216L17.7744 6.6328L22.0632 2.34403L26.352 6.6328L22.0632 10.9216Z" fill="#8B85F4"/>
<path d="M41.2107 5.29356V0.00744629H30.4424V13.2652H43.8918V5.29356H41.2107ZM33.1669 2.69412H38.4852V5.29356H33.1669V2.69412ZM41.1663 10.5785H33.1669V7.98024L41.1663 7.97909V10.5785Z" fill="#43B9FB"/>
<path d="M59.1135 9.91236V13.2652H45.6641V0.00744629H49.0167V9.91236H59.1135Z" fill="#43B9FB"/>
<path d="M60.8862 0V13.2658H74.3357V0H60.8862ZM67.7278 10.9216L63.439 6.6328L67.7278 2.34403L72.0165 6.6328L67.7278 10.9216Z" fill="#8B85F4"/>
<path d="M79.4591 3.36029V9.91236H89.5559V13.2652H76.1064V0.00744629H89.5559V3.36029H79.4591Z" fill="#43B9FB"/>
<path d="M98.1178 6.62534L104.765 13.2727H100.024L94.681 7.93032V13.2727H91.3281V0.00784403H94.681V5.31672L100.018 0H104.768L98.1178 6.62534Z" fill="#43B9FB"/>
<path d="M109.246 2.69412V5.28552H120.009V13.2652H106.559V10.5785H117.327V7.9722H106.559V0.00744629H120.009V2.69412H109.246Z" fill="#43B9FB"/>
</svg>
