<svg width="24" height="24" viewBox="0 0 24 24" fill="none" xmlns="http://www.w3.org/2000/svg">
<path d="M12 24C18.6274 24 24 18.6274 24 12C24 5.37258 18.6274 0 12 0C5.37258 0 0 5.37258 0 12C0 18.6274 5.37258 24 12 24Z" fill="#F4B731"/>
<path fill-rule="evenodd" clip-rule="evenodd" d="M6.95775 5.99994H11.8717C14.8605 5.99994 17.1262 7.58694 17.9692 9.89544H19.5V11.2912H18.2917C18.315 11.5117 18.327 11.7367 18.327 11.9647V11.9992C18.327 12.2557 18.312 12.5092 18.282 12.7567H19.5V14.1517H17.94C17.0752 16.4287 14.8275 17.9999 11.8725 17.9999H6.95775V14.1517H5.25V12.7567H6.95775V11.2912H5.25V9.89619H6.95775V5.99994ZM8.331 14.1517V16.7482H11.871C14.0565 16.7482 15.6795 15.7079 16.4347 14.1517H8.331ZM16.8555 12.7567H8.331V11.2912H16.8585C16.8892 11.5214 16.9057 11.7577 16.9057 11.9992V12.0329C16.9057 12.2797 16.8885 12.5204 16.8555 12.7559V12.7567ZM11.8725 7.24869C14.067 7.24869 15.6952 8.31669 16.446 9.89469H8.331V7.24944H11.871L11.8725 7.24869Z" fill="white"/>
</svg>
