<svg width="24" height="24" viewBox="0 0 24 24" fill="none" xmlns="http://www.w3.org/2000/svg">
<path d="M12 24C18.6274 24 24 18.6274 24 12C24 5.37258 18.6274 0 12 0C5.37258 0 0 5.37258 0 12C0 18.6274 5.37258 24 12 24Z" fill="#26A17B"/>
<path fill-rule="evenodd" clip-rule="evenodd" d="M13.4412 13.0372V13.0357C13.3587 13.0417 12.9335 13.0672 11.9847 13.0672C11.2272 13.0672 10.694 13.0447 10.5065 13.0357V13.0379C7.59048 12.9097 5.41398 12.4019 5.41398 11.7944C5.41398 11.1877 7.59048 10.6799 10.5065 10.5494V12.5324C10.697 12.5459 11.243 12.5782 11.9975 12.5782C12.9027 12.5782 13.3565 12.5407 13.4412 12.5332V10.5509C16.3512 10.6807 18.5225 11.1884 18.5225 11.7944C18.5225 12.4019 16.3512 12.9082 13.4412 13.0372ZM13.4412 10.3447V8.5702H17.5017V5.8642H6.44598V8.5702H10.5065V10.3439C7.20648 10.4954 4.72473 11.1494 4.72473 11.9324C4.72473 12.7154 7.20648 13.3687 10.5065 13.5209V19.2074H13.4412V13.5194C16.736 13.3679 19.2117 12.7147 19.2117 11.9324C19.2117 11.1502 16.736 10.4969 13.4412 10.3447Z" fill="white"/>
</svg>
